# xmcd
#
# Track frame offsets:
# 150
# 23837
# 35925
# 46620
# 60305
# 82332
# 92775
# 127397
# 143712
# 162670
#
# Disc length: 2295 seconds
#
#
# Revision: 1
# Processed by: cddbd v1.5.1PL2 Copyright (c) Steve Scherf et al.
# Submitted via: FreeRIP 2.944 
#
DISCID=8e08f50a
DTITLE=Creedence Clearwater Revival - Hot Stuff
DYEAR=1995
DGENRE=Classic Rock
TTITLE0=Born On The Bayou
TTITLE1=Hey Tonight
TTITLE2=Porterville
TTITLE3=Bootleg
TTITLE4=Wrote A Song For Everyone
TTITLE5=Bad Moon Rising
TTITLE6=Keep On Chooglin'
TTITLE7=Ninety-Nine and a half (Won;t Do)
TTITLE8=The Midnight Special
TTITLE9=Ooby Dooby
EXTD=
EXTT0=
EXTT1=
EXTT2=
EXTT3=
EXTT4=
EXTT5=
EXTT6=
EXTT7=
EXTT8=
EXTT9=
PLAYORDER=
